<?xml version="1.0" standalone="no"?>
<!DOCTYPE svg PUBLIC "-//W3C//DTD SVG 20010904//EN"
 "http://www.w3.org/TR/2001/REC-SVG-20010904/DTD/svg10.dtd">
<svg version="1.0" xmlns="http://www.w3.org/2000/svg"
 width="260.000000pt" height="260.000000pt" viewBox="0 0 260.000000 260.000000"
 preserveAspectRatio="xMidYMid meet">
<metadata>
Created by potrace 1.14, written by Peter Selinger 2001-2017
</metadata>
<g transform="translate(0.000000,260.000000) scale(0.100000,-0.100000)"
fill="#000000" stroke="none">
<path d="M0 1300 l0 -1300 1300 0 1300 0 0 1300 0 1300 -1300 0 -1300 0 0
-1300z m784 728 c-5 -8 -2 -9 11 -5 9 4 25 2 33 -5 11 -9 14 -9 9 -1 -4 6 -3
14 3 18 5 3 10 1 10 -6 0 -9 3 -9 14 0 8 7 17 8 19 4 3 -5 47 -8 97 -6 51 1
90 -1 86 -4 -3 -3 -1 -14 5 -24 7 -14 6 -19 -3 -19 -8 0 -9 -3 -3 -8 6 -4 10
-31 10 -60 0 -28 -4 -52 -10 -52 -5 0 -1 -6 9 -12 19 -11 19 -11 1 -24 -10 -8
-15 -14 -9 -14 12 0 12 -103 -1 -112 -6 -5 -5 -8 3 -8 6 0 12 -5 12 -11 0 -5
-4 -8 -9 -5 -5 4 -6 -9 -1 -29 4 -19 5 -35 1 -35 -4 0 -7 -8 -7 -19 0 -14 7
-18 28 -17 14 1 25 -1 23 -5 -3 -3 9 -6 25 -5 17 1 30 5 30 9 0 5 5 5 11 2 16
-11 109 -12 109 -1 0 4 7 3 15 -4 12 -10 15 -10 16 1 0 8 2 9 5 3 3 -7 19 -9
37 -7 36 5 31 5 108 0 44 -3 56 0 52 10 -3 7 0 13 7 13 6 0 9 4 5 9 -8 15 -13
71 -5 71 3 0 4 23 0 50 -4 32 -3 50 4 50 7 0 7 3 0 10 -6 6 -8 31 -4 61 4 33
2 56 -6 67 -9 12 -9 21 -2 30 6 7 8 15 5 18 -3 3 8 19 24 35 16 16 29 35 29
42 0 7 3 8 8 2 11 -15 46 -19 36 -4 -5 8 -3 10 5 4 18 -10 71 -13 77 -3 3 5
10 5 16 2 19 -12 68 -13 61 -1 -3 6 -1 7 6 3 19 -12 81 -15 81 -4 0 7 5 6 13
-1 8 -6 17 -8 20 -4 4 3 7 -2 8 -13 4 -98 3 -134 -6 -134 -7 0 -7 -3 0 -8 6
-4 10 -29 10 -57 0 -27 -4 -53 -10 -57 -7 -5 -7 -8 0 -8 13 0 13 -103 0 -112
-7 -5 -7 -8 0 -8 6 0 10 -25 10 -55 0 -30 -4 -55 -10 -55 -7 0 -7 -3 0 -8 6
-4 10 -29 10 -57 0 -27 -4 -53 -10 -57 -7 -5 -6 -8 0 -8 6 0 11 -9 11 -20 0
-11 -4 -20 -9 -20 -5 0 -4 -7 3 -15 10 -12 10 -15 -1 -15 -9 0 -10 -3 -4 -8 6
-4 10 -29 10 -57 0 -27 -4 -53 -10 -57 -6 -5 -6 -8 2 -8 6 0 9 -9 6 -20 -3
-13 0 -20 8 -20 12 0 12 -2 0 -9 -8 -5 -12 -19 -9 -35 3 -15 1 -26 -6 -27 -8
0 -8 -2 0 -5 7 -3 10 -14 7 -24 -3 -13 0 -20 8 -20 12 0 12 -2 0 -9 -8 -5 -12
-19 -9 -35 3 -15 1 -26 -6 -27 -7 0 -6 -3 2 -6 6 -2 9 -9 6 -14 -3 -6 0 -17 7
-25 10 -12 9 -13 -3 -9 -11 4 -14 0 -12 -17 1 -13 3 -23 4 -23 8 0 3 -55 -5
-55 -5 0 -1 -7 9 -15 12 -9 15 -15 7 -15 -9 0 -12 -10 -9 -30 3 -17 0 -30 -6
-31 -7 0 -7 -2 0 -5 7 -3 10 -14 7 -24 -3 -13 0 -20 8 -20 12 0 12 -2 0 -9 -8
-5 -12 -19 -9 -35 3 -15 1 -26 -6 -27 -7 0 -7 -2 1 -5 8 -4 9 -14 3 -35 -5
-16 -5 -27 -1 -25 4 3 7 -13 7 -34 -1 -21 -4 -36 -8 -33 -5 2 -8 -2 -9 -9 0
-10 -2 -10 -6 0 -2 6 -9 10 -14 6 -5 -3 -9 4 -9 16 0 12 -5 18 -10 15 -6 -3
-13 1 -16 9 -3 9 -9 14 -13 11 -4 -2 -8 2 -8 10 0 8 4 12 9 9 4 -3 5 11 2 31
-4 29 -3 35 8 29 10 -6 9 -3 -1 10 -13 15 -13 19 0 27 9 5 10 9 2 9 -14 0 -13
42 2 52 7 5 6 8 -2 8 -8 0 -10 15 -8 45 1 25 -2 45 -7 45 -5 0 -7 4 -4 8 8 13
-28 11 -36 -2 -5 -7 -8 -6 -8 3 0 11 -4 9 -14 -5 -10 -12 -11 -23 -5 -31 7 -7
6 -14 -2 -18 -8 -6 -7 -10 2 -16 12 -7 12 -9 0 -9 -11 0 -11 -3 -1 -15 9 -11
9 -15 1 -15 -8 0 -9 -5 -2 -18 7 -13 6 -23 -1 -30 -9 -9 -9 -12 1 -12 11 0 11
-3 0 -17 -12 -14 -12 -15 -1 -9 11 7 12 4 3 -11 -10 -21 -70 -30 -72 -12 -3
19 -5 24 -12 37 -5 7 -3 12 4 12 8 0 9 3 0 13 -6 8 -7 17 -3 21 19 20 4 66
-23 66 -5 0 -3 -5 5 -10 8 -5 10 -10 5 -10 -6 0 -16 5 -21 10 -18 18 -41 1
-38 -27 3 -34 -5 -53 -21 -47 -7 3 -16 1 -20 -5 -3 -6 -1 -11 6 -11 18 0 5
-10 -20 -15 -11 -2 -21 -1 -22 3 -5 42 -4 52 3 52 4 0 8 5 8 11 0 5 -3 8 -8 6
-4 -3 -7 6 -7 19 0 13 4 24 8 24 5 0 5 5 1 11 -8 13 -11 129 -3 129 3 0 3 23
-1 50 -4 28 -2 50 2 50 5 0 6 5 2 12 -9 15 -11 68 -2 68 4 0 3 14 -2 30 -6 21
-5 30 3 30 7 0 6 4 -3 10 -12 8 -12 10 -1 10 8 0 12 3 9 6 -4 3 -10 6 -15 6
-4 0 -14 5 -22 11 -12 9 -13 9 -7 0 9 -17 -6 -17 -23 -1 -8 8 -11 8 -8 2 4 -7
-3 -11 -18 -11 -14 0 -22 4 -18 10 4 6 1 7 -8 1 -7 -4 -38 -7 -67 -6 -40 1
-51 -1 -46 -11 6 -9 4 -9 -7 -1 -8 6 -60 10 -119 10 l-105 -1 0 -47 c0 -27 -2
-48 -5 -48 -3 0 -6 -9 -6 -19 0 -11 3 -18 6 -16 3 2 5 -23 5 -56 0 -32 -4 -59
-10 -59 -5 0 -3 -5 5 -10 13 -8 13 -10 1 -10 -11 0 -10 -4 5 -16 12 -10 14
-14 4 -11 -13 4 -15 -5 -10 -55 5 -45 2 -62 -9 -71 -12 -10 -13 -9 -6 3 4 8
-1 6 -12 -5 -11 -11 -18 -25 -16 -30 5 -14 -89 -13 -99 0 -5 7 -8 7 -8 0 0 -6
-22 -9 -50 -8 -34 2 -50 -2 -51 -10 0 -7 -4 -3 -9 8 -5 11 -9 16 -9 10 -1 -5
-24 -10 -52 -9 -51 0 -72 14 -62 41 3 7 -1 21 -8 30 -10 12 -11 15 -1 9 10 -6
12 1 9 28 -2 20 -1 36 2 36 4 0 7 9 7 19 0 11 -3 18 -6 16 -3 -2 -6 16 -5 41
0 24 5 44 10 44 6 0 3 5 -5 10 -12 8 -12 10 -1 10 11 0 9 5 -5 22 -10 12 -13
18 -6 14 10 -6 12 1 9 28 -2 20 -1 36 2 36 4 0 7 9 7 19 0 11 -3 18 -6 16 -3
-2 -6 16 -5 41 0 24 5 44 10 44 6 0 3 5 -5 10 -12 8 -12 10 -1 10 11 0 9 5 -5
22 -10 12 -13 18 -6 14 10 -6 12 1 9 28 -2 20 -1 36 2 36 4 0 7 9 7 19 0 11
-3 18 -6 16 -3 -2 -6 16 -5 41 0 24 5 44 10 44 6 0 3 5 -5 10 -12 8 -12 10 -1
10 11 0 9 5 -5 22 -10 12 -13 18 -6 14 10 -6 12 1 9 28 -2 20 -1 36 2 36 4 0
7 9 7 19 0 11 -3 18 -6 16 -3 -2 -6 16 -5 41 0 24 5 44 10 44 6 0 3 5 -5 10
-12 8 -12 10 -1 10 11 0 9 5 -5 22 -10 12 -13 18 -6 14 10 -6 12 1 9 28 -2 20
-1 36 2 36 4 0 7 9 7 19 0 11 -3 18 -6 16 -3 -2 -6 16 -5 41 0 24 5 44 10 44
6 0 3 5 -5 10 -11 7 -11 10 -2 10 8 0 10 5 5 13 -10 17 -11 67 0 67 4 0 6 4 3
9 -3 5 10 8 30 7 19 -1 41 2 47 6 17 11 19 10 11 -4z"/>
</g>
</svg>
